<?xml version="1.0" standalone="no"?><svg xmlns="http://www.w3.org/2000/svg" viewBox="0 0 1440 320"><path fill="#273036" fill-opacity="1" d="M0,96L17.1,106.7C34.3,117,69,139,103,165.3C137.1,192,171,224,206,229.3C240,235,274,213,309,202.7C342.9,192,377,192,411,202.7C445.7,213,480,235,514,240C548.6,245,583,235,617,224C651.4,213,686,203,720,213.3C754.3,224,789,256,823,229.3C857.1,203,891,117,926,85.3C960,53,994,75,1029,96C1062.9,117,1097,139,1131,154.7C1165.7,171,1200,181,1234,197.3C1268.6,213,1303,235,1337,208C1371.4,181,1406,107,1423,69.3L1440,32L1440,320L1422.9,320C1405.7,320,1371,320,1337,320C1302.9,320,1269,320,1234,320C1200,320,1166,320,1131,320C1097.1,320,1063,320,1029,320C994.3,320,960,320,926,320C891.4,320,857,320,823,320C788.6,320,754,320,720,320C685.7,320,651,320,617,320C582.9,320,549,320,514,320C480,320,446,320,411,320C377.1,320,343,320,309,320C274.3,320,240,320,206,320C171.4,320,137,320,103,320C68.6,320,34,320,17,320L0,320Z"></path></svg>